<svg width="324" height="324" viewBox="0 0 324 324" fill="none" xmlns="http://www.w3.org/2000/svg">
<path d="M265.194 175.783C262.368 160.879 253.238 149.993 241.354 141.238C232.871 134.985 225.983 126.807 220.073 118.098C211.818 105.922 204.968 90.6876 191.62 83.1578C172.633 72.4528 154.379 87.0134 138.989 97.2842C130.915 102.676 122.303 108.3 112.531 109.855C98.5992 112.085 84.4534 105.967 70.638 109.648C67.9551 109.769 65.3172 110.382 62.8555 111.456C62.8555 111.456 45.3595 117.288 40.1755 147.096C34.9915 176.904 39.5275 221.616 64.1515 247.536C88.7755 273.456 108.216 276.696 121.176 277.344C121.532 277.344 121.882 277.344 122.232 277.344C130.831 278.64 141.024 277.992 152.688 274.752C190.194 264.332 188.107 240.369 221.447 235.159C254.787 229.949 270.922 205.993 265.194 175.783Z" fill="#FFC107"/>
<path opacity="0.7" d="M265.194 175.783C262.368 160.879 253.238 149.993 241.354 141.238C232.871 134.985 225.983 126.807 220.073 118.098C211.818 105.922 204.968 90.6876 191.62 83.1578C172.633 72.4528 154.379 87.0134 138.989 97.2842C130.915 102.676 122.303 108.3 112.531 109.855C98.5992 112.085 84.4534 105.967 70.638 109.648C67.9551 109.769 65.3172 110.382 62.8555 111.456C62.8555 111.456 45.3595 117.288 40.1755 147.096C34.9915 176.904 39.5275 221.616 64.1515 247.536C88.7755 273.456 108.216 276.696 121.176 277.344C121.532 277.344 121.882 277.344 122.232 277.344C130.831 278.64 141.024 277.992 152.688 274.752C190.194 264.332 188.107 240.369 221.447 235.159C254.787 229.949 270.922 205.993 265.194 175.783Z" fill="white"/>
<path d="M143.934 59.3826C143.934 59.3826 146.902 57.0368 147.667 55.5335C148.315 54.2375 148.781 52.436 148.114 51.0752C147.97 50.747 147.758 50.453 147.493 50.2122C147.227 49.9715 146.914 49.7895 146.573 49.6782C146.232 49.5669 145.872 49.5287 145.516 49.5662C145.159 49.6037 144.815 49.7161 144.504 49.8959C142.671 51.0363 142.476 54.9114 142.943 56.7776C142.982 56.9591 143.902 59.4085 143.934 59.3826Z" fill="#FFC107"/>
<path d="M116.479 78.92C116.602 79.0367 118.721 80.5724 118.727 80.5335C118.734 80.4947 119.913 76.9371 119.719 75.2653C119.55 73.8397 118.941 72.0642 117.632 71.2995C117.331 71.107 116.992 70.9804 116.638 70.9279C116.284 70.8754 115.923 70.8982 115.579 70.9949C115.234 71.0915 114.914 71.2598 114.639 71.4888C114.365 71.7177 114.141 72.0021 113.984 72.3234C113.083 74.2803 115.059 77.624 116.479 78.92Z" fill="#FFC107"/>
<path d="M178.706 62.9336C178.706 62.9336 167.833 74.157 167.891 87.9399C167.949 101.723 178.907 112.856 178.907 112.856C178.907 112.856 189.78 101.632 189.722 87.8492C189.664 74.0662 178.706 62.9336 178.706 62.9336Z" fill="#FFC107"/>
<path d="M163.206 96.202C163.346 96.0444 163.476 95.8777 163.594 95.703C164.385 94.5042 165.059 92.7611 164.553 91.329C164.446 90.9876 164.268 90.6726 164.031 90.4045C163.794 90.1365 163.503 89.9215 163.177 89.7736C162.851 89.6256 162.497 89.548 162.139 89.5458C161.782 89.5436 161.427 89.6169 161.1 89.7608C159.622 90.4607 158.903 92.8259 158.747 94.7634C158.158 94.6273 157.626 94.5236 157.166 94.4459C156.972 94.0117 156.777 93.5646 156.576 93.1499C156.376 92.7352 156.214 92.2297 156.026 91.7632C155.766 91.0763 155.533 90.3505 155.293 89.6312C156.155 89.2424 158.663 88.076 159.596 87.0392C160.529 86.0024 161.488 84.35 161.203 82.8596C161.149 82.506 161.021 82.1677 160.827 81.867C160.633 81.5662 160.378 81.3096 160.079 81.114C159.779 80.9183 159.442 80.788 159.088 80.7315C158.735 80.675 158.374 80.6936 158.028 80.786C155.961 81.434 154.749 85.0888 154.704 87.0133C154.704 87.0781 154.704 87.4864 154.782 87.9659C154.574 87.2531 154.36 86.5468 154.179 85.821C153.648 83.7539 153.168 81.6349 152.682 79.516C152.585 79.0688 152.475 78.6347 152.371 78.22C153.097 77.9024 155.818 76.6583 156.797 75.5761C157.775 74.494 158.695 72.8869 158.41 71.3965C158.355 71.0426 158.226 70.7043 158.032 70.4035C157.837 70.1027 157.582 69.8461 157.282 69.6506C156.982 69.455 156.644 69.3248 156.29 69.2683C155.936 69.2119 155.575 69.2305 155.229 69.3229C153.168 69.9709 151.956 73.6256 151.911 75.5502C151.911 75.615 151.95 76.101 152.002 76.6453C151.716 75.4984 151.425 74.3579 151.101 73.2304C150.551 71.299 149.871 69.4068 149.066 67.5668C149.325 67.4567 152.546 66.0635 153.635 64.8582C154.6 63.7955 155.527 62.169 155.242 60.6786C155.187 60.3249 155.059 59.9867 154.865 59.6859C154.672 59.3851 154.417 59.1286 154.117 58.9329C153.817 58.7373 153.48 58.607 153.127 58.5505C152.773 58.494 152.412 58.5125 152.066 58.605C150.006 59.253 148.788 62.9077 148.749 64.8323C148.749 64.9684 148.904 66.7244 148.982 67.353V67.2882C148.151 65.4981 147.16 63.7869 146.021 62.1755C145.022 60.7289 143.941 59.342 142.781 58.0218C141.711 56.7906 140.655 55.7214 139.716 54.7818C139.197 54.2828 138.718 53.8292 138.27 53.4145H138.316C138.355 53.4145 137.305 51.0104 137.221 50.8679C136.262 49.2025 133.417 46.5587 131.311 46.9799C130.964 47.0664 130.639 47.2249 130.357 47.4451C130.075 47.6654 129.842 47.9424 129.674 48.2583C129.506 48.5741 129.406 48.9218 129.381 49.2787C129.356 49.6356 129.407 49.9938 129.529 50.33C130.002 51.7751 131.596 52.7471 132.957 53.2136C134.318 53.6802 137.383 53.4664 138.141 53.3951C138.601 53.8357 139.087 54.3152 139.612 54.8466C140.532 55.7992 141.556 56.8878 142.606 58.1384C142.878 58.4689 143.163 58.8448 143.448 59.1947C142.845 58.6957 142.016 58.0283 141.925 57.97C140.305 56.9396 136.56 55.9028 134.907 57.2766C134.637 57.5117 134.42 57.8011 134.27 58.126C134.12 58.4509 134.04 58.8039 134.036 59.1618C134.031 59.5198 134.103 59.8746 134.245 60.203C134.388 60.5313 134.598 60.8259 134.862 61.0674C135.944 62.1366 137.817 62.2597 139.236 62.0524C140.655 61.845 143.364 60.1796 143.94 59.8103C144.556 60.6008 145.172 61.4303 145.761 62.331C146.845 63.9494 147.784 65.6603 148.567 67.4437C148.613 67.5474 148.645 67.6576 148.69 67.7612C148.438 67.4632 146.921 65.9404 146.805 65.8172C145.308 64.612 141.705 63.1669 139.903 64.3528C139.61 64.5575 139.363 64.8218 139.178 65.1285C138.994 65.4351 138.876 65.7772 138.833 66.1325C138.789 66.4877 138.821 66.8481 138.926 67.1901C139.032 67.5322 139.208 67.8482 139.443 68.1176C140.409 69.297 142.249 69.6275 143.681 69.5756C145.34 69.5173 148.593 67.8714 148.716 67.8131C149.451 69.6109 150.065 71.4552 150.557 73.334C150.926 74.7208 151.25 76.1464 151.554 77.572C151.218 77.1961 149.811 75.777 149.695 75.6863C148.198 74.481 144.595 73.036 142.794 74.2218C142.5 74.4266 142.253 74.6909 142.068 74.9975C141.884 75.3042 141.766 75.6463 141.723 76.0015C141.679 76.3567 141.711 76.7171 141.817 77.0592C141.922 77.4012 142.098 77.7173 142.333 77.9867C143.299 79.166 145.139 79.4965 146.571 79.4447C148.191 79.3864 151.315 77.8247 151.58 77.6951C151.723 78.3431 151.859 78.9911 151.995 79.6391C152.436 81.7645 152.87 83.9029 153.356 85.996C153.524 86.7217 153.719 87.428 153.913 88.1408C153.382 87.59 152.403 86.6051 152.313 86.5273C150.816 85.3285 147.206 83.8835 145.411 85.0628C145.118 85.2676 144.871 85.5319 144.686 85.8386C144.502 86.1452 144.384 86.4873 144.341 86.8425C144.297 87.1978 144.329 87.5582 144.434 87.9002C144.54 88.2423 144.716 88.5583 144.951 88.8277C145.91 90.0071 147.757 90.344 149.189 90.2857C150.621 90.2274 153.291 88.9897 154.036 88.6139C154.36 89.7932 154.684 90.9596 155.112 92.0872C155.293 92.5732 155.449 93.0786 155.65 93.5322L155.954 94.2515L155.54 94.2126C155.54 94.2126 155.54 94.8606 155.572 95.9816C153.991 94.8541 151.684 93.8821 150.226 94.569C149.906 94.7271 149.622 94.9509 149.394 95.2258C149.165 95.5008 148.997 95.8207 148.901 96.1648C148.804 96.5089 148.781 96.8695 148.833 97.2231C148.885 97.5767 149.011 97.9155 149.202 98.2172C149.299 98.3798 149.41 98.5337 149.533 98.6773C149.82 100.338 150.525 101.899 151.58 103.213C151.658 103.311 152.734 104.302 153.298 104.794C152.753 104.503 152.215 104.211 151.658 103.9C150.848 103.447 150.012 102.948 149.196 102.468L147.939 101.671C147.511 101.405 147.129 101.107 146.714 100.822C146.118 100.388 145.522 99.915 144.932 99.442C145.437 98.6514 146.876 96.2927 147.09 94.906C147.304 93.5192 147.18 91.6141 146.124 90.5255C145.885 90.2592 145.592 90.0462 145.265 89.9004C144.938 89.7546 144.584 89.6793 144.226 89.6793C143.867 89.6793 143.513 89.7546 143.186 89.9004C142.859 90.0462 142.566 90.2592 142.327 90.5255C140.947 92.1779 141.971 95.9233 142.975 97.5498C142.975 97.6016 143.26 97.9256 143.565 98.3015C143.001 97.822 142.431 97.3489 141.873 96.8435C140.292 95.4179 138.724 93.908 137.149 92.4112L136.158 91.478C136.586 90.83 138.173 88.238 138.394 86.8319C138.614 85.4257 138.491 83.54 137.428 82.4514C137.189 82.1861 136.896 81.9741 136.57 81.8289C136.243 81.6838 135.89 81.6088 135.533 81.6088C135.175 81.6088 134.822 81.6838 134.496 81.8289C134.169 81.9741 133.877 82.1861 133.637 82.4514C132.257 84.1038 133.274 87.8492 134.285 89.4757C134.324 89.534 134.629 89.9164 134.966 90.344C134.104 89.5405 133.223 88.75 132.335 87.9918C130.81 86.6852 129.199 85.4816 127.514 84.3889C127.669 84.1556 129.587 81.2137 129.827 79.6132C130.047 78.1876 129.924 76.3213 128.868 75.2327C128.625 74.9716 128.332 74.7635 128.005 74.6211C127.678 74.4787 127.326 74.4052 126.969 74.4052C126.613 74.4052 126.26 74.4787 125.934 74.6211C125.607 74.7635 125.313 74.9716 125.071 75.2327C123.69 76.8851 124.714 80.6305 125.719 82.257C125.79 82.3736 126.892 83.7474 127.306 84.201L127.248 84.1621C125.566 83.131 123.797 82.2506 121.96 81.5312C120.322 80.8811 118.648 80.3272 116.945 79.8724C115.37 79.4317 113.899 79.1272 112.597 78.868C111.897 78.7319 111.249 78.6217 110.653 78.5245H110.692C110.692 78.5245 108.527 77.073 108.378 77.0017C106.655 76.1464 102.825 75.5048 101.322 77.0471C101.079 77.3104 100.895 77.6217 100.781 77.9608C100.667 78.2998 100.625 78.6591 100.659 79.0153C100.692 79.3715 100.8 79.7167 100.976 80.0284C101.152 80.3402 101.391 80.6115 101.678 80.8249C102.87 81.771 104.736 81.6997 106.13 81.3433C107.523 80.9869 109.959 79.1012 110.556 78.6347C111.204 78.7448 111.852 78.8744 112.584 79.03C113.88 79.3151 115.331 79.678 116.893 80.1251C117.308 80.2482 117.748 80.4037 118.189 80.5398C117.411 80.4556 116.349 80.3584 116.245 80.3584C114.301 80.3584 110.627 81.5896 110.005 83.6502C109.91 83.9953 109.889 84.3565 109.944 84.7102C109.998 85.0639 110.126 85.4021 110.32 85.7029C110.514 86.0037 110.769 86.2603 111.068 86.456C111.368 86.6516 111.706 86.7819 112.059 86.8384C113.549 87.13 115.182 86.1904 116.251 85.2443C117.321 84.2982 118.662 81.4081 118.941 80.7796C119.887 81.1036 120.885 81.4276 121.844 81.8812C123.648 82.6298 125.383 83.5362 127.028 84.5898C127.118 84.6546 127.209 84.7324 127.306 84.7907C126.93 84.687 124.824 84.2464 124.675 84.2334C122.731 84.052 118.954 84.836 118.111 86.8254C117.98 87.1581 117.92 87.5147 117.936 87.872C117.951 88.2293 118.042 88.5794 118.201 88.8995C118.361 89.2196 118.586 89.5026 118.862 89.7303C119.137 89.9579 119.458 90.1251 119.802 90.2209C121.254 90.6745 122.978 89.9293 124.144 89.0999C125.492 88.1344 127.3 84.9656 127.384 84.849C128.985 85.9457 130.513 87.1449 131.959 88.4389C133.041 89.3915 134.091 90.3829 135.134 91.4262C134.642 91.2966 132.685 90.8884 132.542 90.8754C130.598 90.7004 126.827 91.4845 125.978 93.4674C125.847 93.8001 125.787 94.1567 125.803 94.514C125.818 94.8713 125.909 95.2214 126.068 95.5415C126.228 95.8616 126.452 96.1446 126.728 96.3723C127.004 96.5999 127.325 96.7671 127.669 96.8629C129.121 97.3165 130.844 96.5778 132.011 95.7419C133.307 94.8023 135.076 91.7696 135.251 91.5169L136.676 92.9101C138.219 94.4459 139.754 95.9881 141.316 97.4461C141.86 97.958 142.411 98.444 142.962 98.93C142.223 98.7616 140.862 98.4764 140.739 98.47C138.828 98.2885 135.024 99.0726 134.175 101.062C134.044 101.395 133.985 101.752 134.001 102.11C134.017 102.467 134.108 102.818 134.268 103.138C134.428 103.458 134.653 103.741 134.93 103.968C135.206 104.196 135.528 104.362 135.873 104.457C137.324 104.905 139.042 104.166 140.208 103.336C141.374 102.507 142.91 99.9798 143.331 99.267C144.252 100.071 145.185 100.848 146.144 101.567C146.565 101.872 146.973 102.215 147.388 102.475L148.626 103.298C149.487 103.835 150.291 104.334 151.107 104.814L152.313 105.507C151.587 105.222 150.427 104.794 150.317 104.769C148.451 104.302 144.576 104.496 143.435 106.33C143.256 106.639 143.143 106.983 143.105 107.338C143.067 107.693 143.103 108.053 143.213 108.393C143.322 108.733 143.501 109.046 143.74 109.313C143.978 109.579 144.269 109.793 144.595 109.94C145.962 110.588 147.777 110.134 149.053 109.486C150.466 108.773 152.591 106.142 152.85 105.818C153.842 106.382 154.794 106.92 155.721 107.406C158.164 108.702 160.257 109.758 161.942 110.529C167.314 115.175 174.902 115.713 174.902 115.713C174.902 115.713 175.304 106.641 169.971 100.706C168.076 98.7231 165.766 97.1851 163.206 96.202ZM153.615 105.028C153.784 104.652 155.067 101.788 155.157 100.155C155.455 100.103 155.76 100.038 156.052 99.9733C156.596 102.833 157.73 105.547 159.382 107.944C158.404 107.477 157.348 106.965 156.227 106.395C155.391 105.967 154.516 105.507 153.615 105.028Z" fill="#FFC107"/>
<path d="M202.824 94.4653C202.824 94.4653 193.752 94.744 188.225 100.505C182.697 106.265 182.736 115.344 182.736 115.344C182.736 115.344 191.808 115.065 197.336 109.305C202.863 103.544 202.824 94.4653 202.824 94.4653Z" fill="#FFC107"/>
<g opacity="0.5">
<path opacity="0.5" d="M143.934 59.3826C143.934 59.3826 146.902 57.0368 147.667 55.5335C148.315 54.2375 148.781 52.436 148.114 51.0752C147.97 50.747 147.758 50.453 147.493 50.2122C147.227 49.9715 146.914 49.7895 146.573 49.6782C146.232 49.5669 145.872 49.5287 145.516 49.5662C145.159 49.6037 144.815 49.7161 144.504 49.8959C142.671 51.0363 142.476 54.9114 142.943 56.7776C142.982 56.9591 143.902 59.4085 143.934 59.3826Z" fill="white"/>
<path opacity="0.5" d="M116.479 78.92C116.602 79.0367 118.721 80.5724 118.727 80.5335C118.734 80.4947 119.913 76.9371 119.719 75.2653C119.55 73.8397 118.941 72.0642 117.632 71.2995C117.331 71.107 116.992 70.9804 116.638 70.9279C116.284 70.8754 115.923 70.8982 115.579 70.9949C115.234 71.0915 114.914 71.2598 114.639 71.4888C114.365 71.7177 114.141 72.0021 113.984 72.3234C113.083 74.2803 115.059 77.624 116.479 78.92Z" fill="white"/>
<path opacity="0.5" d="M178.706 62.9336C178.706 62.9336 167.833 74.157 167.891 87.9399C167.949 101.723 178.907 112.856 178.907 112.856C178.907 112.856 189.78 101.632 189.722 87.8492C189.664 74.0662 178.706 62.9336 178.706 62.9336Z" fill="white"/>
<path opacity="0.5" d="M163.206 96.202C163.346 96.0444 163.476 95.8777 163.594 95.703C164.385 94.5042 165.059 92.7611 164.553 91.329C164.446 90.9876 164.268 90.6726 164.031 90.4045C163.794 90.1365 163.503 89.9215 163.177 89.7736C162.851 89.6256 162.497 89.548 162.139 89.5458C161.782 89.5436 161.427 89.6169 161.1 89.7608C159.622 90.4607 158.903 92.8259 158.747 94.7634C158.158 94.6273 157.626 94.5236 157.166 94.4459C156.972 94.0117 156.777 93.5646 156.576 93.1499C156.376 92.7352 156.214 92.2297 156.026 91.7632C155.766 91.0763 155.533 90.3505 155.293 89.6312C156.155 89.2424 158.663 88.076 159.596 87.0392C160.529 86.0024 161.488 84.35 161.203 82.8596C161.149 82.506 161.021 82.1677 160.827 81.867C160.633 81.5662 160.378 81.3096 160.079 81.114C159.779 80.9183 159.442 80.788 159.088 80.7315C158.735 80.675 158.374 80.6936 158.028 80.786C155.961 81.434 154.749 85.0888 154.704 87.0133C154.704 87.0781 154.704 87.4864 154.782 87.9659C154.574 87.2531 154.36 86.5468 154.179 85.821C153.648 83.7539 153.168 81.6349 152.682 79.516C152.585 79.0688 152.475 78.6347 152.371 78.22C153.097 77.9024 155.818 76.6583 156.797 75.5761C157.775 74.494 158.695 72.8869 158.41 71.3965C158.355 71.0426 158.226 70.7043 158.032 70.4035C157.837 70.1027 157.582 69.8461 157.282 69.6506C156.982 69.455 156.644 69.3248 156.29 69.2683C155.936 69.2119 155.575 69.2305 155.229 69.3229C153.168 69.9709 151.956 73.6256 151.911 75.5502C151.911 75.615 151.95 76.101 152.002 76.6453C151.716 75.4984 151.425 74.3579 151.101 73.2304C150.551 71.299 149.871 69.4068 149.066 67.5668C149.325 67.4567 152.546 66.0635 153.635 64.8582C154.6 63.7955 155.527 62.169 155.242 60.6786C155.187 60.3249 155.059 59.9867 154.865 59.6859C154.672 59.3851 154.417 59.1286 154.117 58.9329C153.817 58.7373 153.48 58.607 153.127 58.5505C152.773 58.494 152.412 58.5125 152.066 58.605C150.006 59.253 148.788 62.9077 148.749 64.8323C148.749 64.9684 148.904 66.7244 148.982 67.353V67.2882C148.151 65.4981 147.16 63.7869 146.021 62.1755C145.022 60.7289 143.941 59.342 142.781 58.0218C141.711 56.7906 140.655 55.7214 139.716 54.7818C139.197 54.2828 138.718 53.8292 138.27 53.4145H138.316C138.355 53.4145 137.305 51.0104 137.221 50.8679C136.262 49.2025 133.417 46.5587 131.311 46.9799C130.964 47.0664 130.639 47.2249 130.357 47.4451C130.075 47.6654 129.842 47.9424 129.674 48.2583C129.506 48.5741 129.406 48.9218 129.381 49.2787C129.356 49.6356 129.407 49.9938 129.529 50.33C130.002 51.7751 131.596 52.7471 132.957 53.2136C134.318 53.6802 137.383 53.4664 138.141 53.3951C138.601 53.8357 139.087 54.3152 139.612 54.8466C140.532 55.7992 141.556 56.8878 142.606 58.1384C142.878 58.4689 143.163 58.8448 143.448 59.1947C142.845 58.6957 142.016 58.0283 141.925 57.97C140.305 56.9396 136.56 55.9028 134.907 57.2766C134.637 57.5117 134.42 57.8011 134.27 58.126C134.12 58.4509 134.04 58.8039 134.036 59.1618C134.031 59.5198 134.103 59.8746 134.245 60.203C134.388 60.5313 134.598 60.8259 134.862 61.0674C135.944 62.1366 137.817 62.2597 139.236 62.0524C140.655 61.845 143.364 60.1796 143.94 59.8103C144.556 60.6008 145.172 61.4303 145.761 62.331C146.845 63.9494 147.784 65.6603 148.567 67.4437C148.613 67.5474 148.645 67.6576 148.69 67.7612C148.438 67.4632 146.921 65.9404 146.805 65.8172C145.308 64.612 141.705 63.1669 139.903 64.3528C139.61 64.5575 139.363 64.8218 139.178 65.1285C138.994 65.4351 138.876 65.7772 138.833 66.1325C138.789 66.4877 138.821 66.8481 138.926 67.1901C139.032 67.5322 139.208 67.8482 139.443 68.1176C140.409 69.297 142.249 69.6275 143.681 69.5756C145.34 69.5173 148.593 67.8714 148.716 67.8131C149.451 69.6109 150.065 71.4552 150.557 73.334C150.926 74.7208 151.25 76.1464 151.554 77.572C151.218 77.1961 149.811 75.777 149.695 75.6863C148.198 74.481 144.595 73.036 142.794 74.2218C142.5 74.4266 142.253 74.6909 142.068 74.9975C141.884 75.3042 141.766 75.6463 141.723 76.0015C141.679 76.3567 141.711 76.7171 141.817 77.0592C141.922 77.4012 142.098 77.7173 142.333 77.9867C143.299 79.166 145.139 79.4965 146.571 79.4447C148.191 79.3864 151.315 77.8247 151.58 77.6951C151.723 78.3431 151.859 78.9911 151.995 79.6391C152.436 81.7645 152.87 83.9029 153.356 85.996C153.524 86.7217 153.719 87.428 153.913 88.1408C153.382 87.59 152.403 86.6051 152.313 86.5273C150.816 85.3285 147.206 83.8835 145.411 85.0628C145.118 85.2676 144.871 85.5319 144.686 85.8386C144.502 86.1452 144.384 86.4873 144.341 86.8425C144.297 87.1978 144.329 87.5582 144.434 87.9002C144.54 88.2423 144.716 88.5583 144.951 88.8277C145.91 90.0071 147.757 90.344 149.189 90.2857C150.621 90.2274 153.291 88.9897 154.036 88.6139C154.36 89.7932 154.684 90.9596 155.112 92.0872C155.293 92.5732 155.449 93.0786 155.65 93.5322L155.954 94.2515L155.54 94.2126C155.54 94.2126 155.54 94.8606 155.572 95.9816C153.991 94.8541 151.684 93.8821 150.226 94.569C149.906 94.7271 149.622 94.9509 149.394 95.2258C149.165 95.5008 148.997 95.8207 148.901 96.1648C148.804 96.5089 148.781 96.8695 148.833 97.2231C148.885 97.5767 149.011 97.9155 149.202 98.2172C149.299 98.3798 149.41 98.5337 149.533 98.6773C149.82 100.338 150.525 101.899 151.58 103.213C151.658 103.311 152.734 104.302 153.298 104.794C152.753 104.503 152.215 104.211 151.658 103.9C150.848 103.447 150.012 102.948 149.196 102.468L147.939 101.671C147.511 101.405 147.129 101.107 146.714 100.822C146.118 100.388 145.522 99.915 144.932 99.442C145.437 98.6514 146.876 96.2927 147.09 94.906C147.304 93.5192 147.18 91.6141 146.124 90.5255C145.885 90.2592 145.592 90.0462 145.265 89.9004C144.938 89.7546 144.584 89.6793 144.226 89.6793C143.867 89.6793 143.513 89.7546 143.186 89.9004C142.859 90.0462 142.566 90.2592 142.327 90.5255C140.947 92.1779 141.971 95.9233 142.975 97.5498C142.975 97.6016 143.26 97.9256 143.565 98.3015C143.001 97.822 142.431 97.3489 141.873 96.8435C140.292 95.4179 138.724 93.908 137.149 92.4112L136.158 91.478C136.586 90.83 138.173 88.238 138.394 86.8319C138.614 85.4257 138.491 83.54 137.428 82.4514C137.189 82.1861 136.896 81.9741 136.57 81.8289C136.243 81.6838 135.89 81.6088 135.533 81.6088C135.175 81.6088 134.822 81.6838 134.496 81.8289C134.169 81.9741 133.877 82.1861 133.637 82.4514C132.257 84.1038 133.274 87.8492 134.285 89.4757C134.324 89.534 134.629 89.9164 134.966 90.344C134.104 89.5405 133.223 88.75 132.335 87.9918C130.81 86.6852 129.199 85.4816 127.514 84.3889C127.669 84.1556 129.587 81.2137 129.827 79.6132C130.047 78.1876 129.924 76.3213 128.868 75.2327C128.625 74.9716 128.332 74.7635 128.005 74.6211C127.678 74.4787 127.326 74.4052 126.969 74.4052C126.613 74.4052 126.26 74.4787 125.934 74.6211C125.607 74.7635 125.313 74.9716 125.071 75.2327C123.69 76.8851 124.714 80.6305 125.719 82.257C125.79 82.3736 126.892 83.7474 127.306 84.201L127.248 84.1621C125.566 83.131 123.797 82.2506 121.96 81.5312C120.322 80.8811 118.648 80.3272 116.945 79.8724C115.37 79.4317 113.899 79.1272 112.597 78.868C111.897 78.7319 111.249 78.6217 110.653 78.5245H110.692C110.692 78.5245 108.527 77.073 108.378 77.0017C106.655 76.1464 102.825 75.5048 101.322 77.0471C101.079 77.3104 100.895 77.6217 100.781 77.9608C100.667 78.2998 100.625 78.6591 100.659 79.0153C100.692 79.3715 100.8 79.7167 100.976 80.0284C101.152 80.3402 101.391 80.6115 101.678 80.8249C102.87 81.771 104.736 81.6997 106.13 81.3433C107.523 80.9869 109.959 79.1012 110.556 78.6347C111.204 78.7448 111.852 78.8744 112.584 79.03C113.88 79.3151 115.331 79.678 116.893 80.1251C117.308 80.2482 117.748 80.4037 118.189 80.5398C117.411 80.4556 116.349 80.3584 116.245 80.3584C114.301 80.3584 110.627 81.5896 110.005 83.6502C109.91 83.9953 109.889 84.3565 109.944 84.7102C109.998 85.0639 110.126 85.4021 110.32 85.7029C110.514 86.0037 110.769 86.2603 111.068 86.456C111.368 86.6516 111.706 86.7819 112.059 86.8384C113.549 87.13 115.182 86.1904 116.251 85.2443C117.321 84.2982 118.662 81.4081 118.941 80.7796C119.887 81.1036 120.885 81.4276 121.844 81.8812C123.648 82.6298 125.383 83.5362 127.028 84.5898C127.118 84.6546 127.209 84.7324 127.306 84.7907C126.93 84.687 124.824 84.2464 124.675 84.2334C122.731 84.052 118.954 84.836 118.111 86.8254C117.98 87.1581 117.92 87.5147 117.936 87.872C117.951 88.2293 118.042 88.5794 118.201 88.8995C118.361 89.2196 118.586 89.5026 118.862 89.7303C119.137 89.9579 119.458 90.1251 119.802 90.2209C121.254 90.6745 122.978 89.9293 124.144 89.0999C125.492 88.1344 127.3 84.9656 127.384 84.849C128.985 85.9457 130.513 87.1449 131.959 88.4389C133.041 89.3915 134.091 90.3829 135.134 91.4262C134.642 91.2966 132.685 90.8884 132.542 90.8754C130.598 90.7004 126.827 91.4845 125.978 93.4674C125.847 93.8001 125.787 94.1567 125.803 94.514C125.818 94.8713 125.909 95.2214 126.068 95.5415C126.228 95.8616 126.452 96.1446 126.728 96.3723C127.004 96.5999 127.325 96.7671 127.669 96.8629C129.121 97.3165 130.844 96.5778 132.011 95.7419C133.307 94.8023 135.076 91.7696 135.251 91.5169L136.676 92.9101C138.219 94.4459 139.754 95.9881 141.316 97.4461C141.86 97.958 142.411 98.444 142.962 98.93C142.223 98.7616 140.862 98.4764 140.739 98.47C138.828 98.2885 135.024 99.0726 134.175 101.062C134.044 101.395 133.985 101.752 134.001 102.11C134.017 102.467 134.108 102.818 134.268 103.138C134.428 103.458 134.653 103.741 134.93 103.968C135.206 104.196 135.528 104.362 135.873 104.457C137.324 104.905 139.042 104.166 140.208 103.336C141.374 102.507 142.91 99.9798 143.331 99.267C144.252 100.071 145.185 100.848 146.144 101.567C146.565 101.872 146.973 102.215 147.388 102.475L148.626 103.298C149.487 103.835 150.291 104.334 151.107 104.814L152.313 105.507C151.587 105.222 150.427 104.794 150.317 104.769C148.451 104.302 144.576 104.496 143.435 106.33C143.256 106.639 143.143 106.983 143.105 107.338C143.067 107.693 143.103 108.053 143.213 108.393C143.322 108.733 143.501 109.046 143.74 109.313C143.978 109.579 144.269 109.793 144.595 109.94C145.962 110.588 147.777 110.134 149.053 109.486C150.466 108.773 152.591 106.142 152.85 105.818C153.842 106.382 154.794 106.92 155.721 107.406C158.164 108.702 160.257 109.758 161.942 110.529C167.314 115.175 174.902 115.713 174.902 115.713C174.902 115.713 175.304 106.641 169.971 100.706C168.076 98.7231 165.766 97.1851 163.206 96.202ZM153.615 105.028C153.784 104.652 155.067 101.788 155.157 100.155C155.455 100.103 155.76 100.038 156.052 99.9733C156.596 102.833 157.73 105.547 159.382 107.944C158.404 107.477 157.348 106.965 156.227 106.395C155.391 105.967 154.516 105.507 153.615 105.028Z" fill="white"/>
<path opacity="0.5" d="M202.824 94.4653C202.824 94.4653 193.752 94.744 188.225 100.505C182.697 106.265 182.736 115.344 182.736 115.344C182.736 115.344 191.808 115.065 197.336 109.305C202.863 103.544 202.824 94.4653 202.824 94.4653Z" fill="white"/>
</g>
<path d="M179.152 100.304L188.043 92.3074L187.667 91.8797L179.146 99.5391L179.101 89.061L179.146 89.0934L186.669 78.0903L186.203 77.7663L179.094 88.1537L178.99 62.9336L178.42 62.9401L178.491 80.0538L172.828 75.1549L172.459 75.5826L178.498 80.8119L178.55 93.0462L169.964 85.4581L169.588 85.8793L178.55 93.8108L178.602 104.956L172.147 99.8955L171.798 100.343L178.602 105.682L178.634 112.856H179.204L179.146 100.297L179.152 100.304Z" fill="white"/>
<path d="M170.956 103.388L170.392 103.323L169.673 109.654L165.856 105.391H165.863L164.891 97.7247L164.327 97.796L165.195 104.652L155.702 94.0376L155.274 94.4199L161.716 101.619L157.64 101.671L157.646 102.241L162.221 102.183L166.738 107.231L160.361 107.237V107.808L167.249 107.801L171.351 112.389L166.854 112.661L166.893 113.231L171.837 112.933L174.572 115.992L175 115.61L170.185 110.225L170.956 103.388Z" fill="white"/>
<path d="M192.45 105.643L200.018 104.108L199.908 103.55L193.137 104.924L203.012 94.6663L202.597 94.271L195.897 101.231L195.547 97.1676L194.977 97.2194L195.372 101.775L190.674 106.654L190.195 100.297L189.625 100.343L190.143 107.205L185.873 111.644L185.27 107.179L184.706 107.257L185.367 112.169L182.522 115.124L182.937 115.519L187.946 110.315L194.821 110.581L194.847 110.011L188.478 109.765L192.45 105.637V105.643Z" fill="white"/>
<path d="M105.352 193.551C105.864 196.098 111.981 197.122 111.981 197.122L116.517 194.53C118.415 210.471 120.1 223.483 120.664 224.617C122.193 227.675 133.41 223.599 134.428 218.499C134.842 216.439 132.833 202.539 130.3 186.715L146.15 177.721C146.15 177.721 146.843 175.446 141.912 176.328C140.188 176.639 135.16 178.511 129.367 180.935C125.803 159.097 121.681 135.925 121.681 135.925C121.681 135.925 175.712 194.543 178.265 194.543C180.818 194.543 184.382 194.037 182.853 189.45C181.323 184.862 121.681 127.773 121.681 127.773C121.681 127.773 111.488 127.261 109.454 131.849C109.454 131.849 112.635 161.346 115.642 187.084C109.674 189.994 105.157 192.579 105.352 193.551Z" fill="#212121"/>
<path d="M225.867 178.524C225.8 175.886 225.538 173.257 225.083 170.657C224.182 165.457 222.525 160.416 220.165 155.695C219.012 153.355 217.693 151.101 216.218 148.949C214.775 146.806 213.195 144.759 211.488 142.819C209.81 140.885 208.016 139.054 206.116 137.337C202.363 133.955 198.302 130.93 193.985 128.304C176.839 117.891 157.049 113.115 137.454 113.4C132.554 113.536 127.672 114.06 122.855 114.968C118.031 115.855 113.316 117.249 108.786 119.129C104.284 121.017 100.033 123.457 96.131 126.393C92.2728 129.281 88.7515 132.593 85.6334 136.268C85.5778 136.328 85.5469 136.407 85.5469 136.488C85.5469 136.57 85.5778 136.649 85.6334 136.709C85.6635 136.739 85.6993 136.763 85.7388 136.78C85.7783 136.796 85.8207 136.805 85.8634 136.805C85.9062 136.805 85.9485 136.796 85.988 136.78C86.0275 136.763 86.0633 136.739 86.0935 136.709C89.3595 133.287 93.0004 130.244 96.9475 127.637C100.863 124.984 105.089 122.823 109.532 121.202C118.429 117.962 127.961 116.737 137.396 116.828C146.872 116.97 156.286 118.378 165.389 121.014C174.503 123.602 183.196 127.491 191.199 132.562C199.124 137.674 206.272 144.141 211.456 152.002C212.759 153.961 213.92 156.012 214.929 158.138C216.975 162.374 218.392 166.887 219.134 171.532C219.507 173.854 219.708 176.199 219.737 178.55C219.761 180.899 219.635 183.248 219.361 185.581C219.186 186.741 219.024 187.901 218.797 189.054L218.402 190.765L218.208 191.62L217.955 192.463C216.638 196.973 214.652 201.261 212.065 205.183C206.881 213.024 199.513 219.303 191.361 223.975C183.129 228.624 174.192 231.894 164.903 233.656C155.614 235.457 146.124 236.002 136.689 235.276C135.503 235.224 134.331 235.062 133.158 234.959C132.568 234.894 131.978 234.842 131.395 234.771L129.646 234.505C128.479 234.311 127.306 234.181 126.153 233.935L122.718 233.28C122.139 233.165 121.566 233.02 121.001 232.846L119.297 232.373C118.157 232.056 117.016 231.757 115.908 231.349L112.558 230.202L109.272 228.874C108.728 228.647 108.177 228.433 107.639 228.193L106.039 227.448C104.976 226.93 103.894 226.457 102.851 225.906C100.784 224.759 98.6776 223.683 96.7077 222.374L95.2108 221.435L94.4591 220.962L93.7399 220.45L90.8563 218.376C89.8907 217.689 89.003 216.905 88.0763 216.173L86.7026 215.058C86.236 214.696 85.8213 214.268 85.4066 213.879L82.8146 211.481L80.3522 208.909C79.9504 208.475 79.5292 208.067 79.1469 207.613L78.0129 206.252L76.8789 204.891C76.5095 204.431 76.1078 203.997 75.7838 203.505L73.7231 200.627L73.2047 199.908L72.7447 199.15L71.7986 197.64C70.5778 195.622 69.4597 193.544 68.4484 191.413C66.4702 187.13 65.0942 182.594 64.3595 177.935C63.6736 173.266 63.6977 168.521 64.4308 163.86C65.1704 159.19 66.5371 154.641 68.4938 150.336C70.4663 146.039 72.8974 141.967 75.7449 138.193C81.4979 130.652 88.4637 124.12 96.3578 118.863C96.4276 118.818 96.477 118.747 96.4951 118.666C96.5133 118.584 96.4989 118.499 96.455 118.429C96.4106 118.356 96.3396 118.304 96.2572 118.283C96.1748 118.263 96.0876 118.275 96.0143 118.319C91.8815 120.773 87.945 123.544 84.2402 126.606C80.519 129.717 77.0898 133.162 73.9953 136.897C70.8454 140.68 68.1386 144.81 65.9277 149.209C63.675 153.683 62.038 158.441 61.0612 163.355C60.1086 168.354 59.925 173.469 60.5169 178.524C61.1576 183.592 62.4965 188.546 64.4956 193.247C66.5153 197.883 69.0243 202.291 71.98 206.395C72.3235 206.926 72.7382 207.399 73.1205 207.898L74.2999 209.382L75.4727 210.859C75.8745 211.345 76.3151 211.799 76.7299 212.266L79.283 215.052L81.9981 217.644C82.4582 218.072 82.8923 218.532 83.3719 218.94L84.8104 220.158C85.7759 220.955 86.7026 221.811 87.707 222.562L90.7202 224.856L91.4783 225.42L92.2559 225.938L93.8306 226.975C95.8912 228.42 98.1203 229.567 100.311 230.863C101.412 231.459 102.553 231.984 103.674 232.554L105.365 233.384C105.935 233.65 106.518 233.883 107.095 234.129L110.568 235.594L114.126 236.89C115.305 237.343 116.517 237.68 117.729 238.037L119.543 238.568C120.146 238.749 120.755 238.924 121.377 239.054L125.071 239.903C126.308 240.188 127.572 240.35 128.823 240.551L130.702 240.862C131.35 240.953 131.939 241.011 132.555 241.089C133.793 241.218 135.03 241.406 136.275 241.484C141.249 241.941 146.25 242.032 151.237 241.756C156.24 241.501 161.219 240.905 166.141 239.974C176.128 238.138 185.745 234.672 194.608 229.716C203.453 224.604 211.533 217.65 217.365 208.786C220.279 204.316 222.504 199.434 223.968 194.303L224.247 193.344L224.474 192.365L224.908 190.421C225.161 189.125 225.342 187.778 225.556 186.462C225.848 183.827 225.952 181.174 225.867 178.524Z" fill="#212121"/>
<path d="M136.67 135.925C136.852 136.311 137.14 136.637 137.5 136.866C137.86 137.096 138.278 137.219 138.705 137.221C139.051 137.223 139.393 137.143 139.703 136.987L148.775 132.535L154.717 137.59C154.942 137.796 155.206 137.955 155.493 138.057C155.781 138.158 156.086 138.201 156.391 138.182C156.695 138.163 156.993 138.083 157.265 137.947C157.538 137.81 157.781 137.62 157.978 137.387C158.176 137.155 158.324 136.885 158.415 136.594C158.506 136.302 158.537 135.996 158.507 135.692C158.476 135.389 158.385 135.095 158.238 134.827C158.091 134.56 157.892 134.325 157.652 134.136L153.207 130.352L158.216 127.883C158.486 127.748 158.727 127.562 158.925 127.334C159.124 127.107 159.275 126.842 159.371 126.556C159.467 126.27 159.506 125.968 159.485 125.667C159.464 125.366 159.384 125.072 159.25 124.802C159.115 124.531 158.929 124.29 158.701 124.092C158.474 123.894 158.209 123.743 157.923 123.647C157.637 123.551 157.335 123.512 157.034 123.533C156.733 123.554 156.439 123.634 156.168 123.768L149.397 127.105L144.64 123.055C144.182 122.665 143.588 122.473 142.988 122.521C142.389 122.569 141.833 122.853 141.443 123.311C141.052 123.769 140.86 124.363 140.908 124.963C140.956 125.563 141.241 126.119 141.699 126.509L144.939 129.289L137.655 132.872C137.12 133.147 136.715 133.622 136.531 134.195C136.346 134.767 136.396 135.389 136.67 135.925Z" fill="#212121"/>
<path opacity="0.3" d="M277.992 271.512L235.36 252.889C230.176 248.476 224.04 243.382 223.048 243.13C221.247 242.676 222.148 240.427 225.303 235.017C228.459 229.606 206.233 219.244 200.55 219.795C196.014 220.242 190.609 219.329 188.659 218.953C190.285 214.125 191.964 209.336 191.964 209.336L169.873 199.668L152.28 172.828L146.785 174.578C146.785 174.578 154.483 192.151 163.51 212.272C160.179 211.209 153.408 209.764 152.734 215.181C151.833 222.387 157.237 227.798 162.642 227.798C165.623 227.798 168.474 227.662 170.418 227.539C180.274 249.227 189.858 269.562 191.491 270.598C195.1 272.853 207.691 276.003 208.164 272.853C208.637 269.704 195.547 246.72 195.547 246.72C195.547 246.72 264.935 274.201 272.16 274.201C279.385 274.201 277.992 271.512 277.992 271.512ZM212.22 232.749C212.22 232.749 210.211 238.522 210.503 242.015L198.671 236.831L212.22 232.749ZM180.228 208.87L178.647 213.095L175.031 207.574L180.228 208.87Z" fill="black"/>
<path d="M251.035 131.9C251.035 131.9 252.441 128.907 251.56 126.613C250.678 124.319 234.465 120.619 234.465 120.619C234.465 120.619 230.759 120.619 230.934 122.731C231.109 124.844 244.509 132.957 245.566 133.663C246.622 134.369 250.678 135.957 251.035 131.9Z" fill="white" stroke="#212121" stroke-linecap="round" stroke-linejoin="round"/>
<path d="M239.047 130.138C239.548 129.25 240.231 128.477 241.05 127.87C241.87 127.263 242.808 126.834 243.803 126.613C247.153 125.906 251.579 128.2 252.091 131.9C252.603 135.601 249.797 137.363 248.035 137.363C246.272 137.363 244.684 134.894 244.684 134.894C244.684 134.894 239.047 132.782 239.047 130.138Z" fill="white" stroke="#212121" stroke-linecap="round" stroke-linejoin="round"/>
<path d="M234.705 147.537C235.382 149.156 236.414 150.604 237.723 151.774C239.033 152.943 240.588 153.805 242.273 154.295C248.222 156.187 259.303 153.485 265.789 154.295L270.649 159.434L263.087 164.294C257.501 162.447 251.815 160.913 246.058 159.7C237.077 157.853 231.465 149.429 231.465 149.429L234.705 147.537Z" fill="#212121"/>
<path d="M150.381 172.076L146.791 174.577L148.508 175.822L151.321 174.889L150.381 172.076Z" fill="#212121" stroke="#212121" stroke-linecap="round" stroke-linejoin="round"/>
<path d="M231.938 111.929C231.938 111.929 230.396 111.365 228.997 110.665C227.597 109.965 229.133 113.186 229.696 113.329C230.26 113.471 231.64 113.75 231.64 113.75L231.938 111.929Z" fill="white" stroke="#212121" stroke-linecap="round" stroke-linejoin="round"/>
<path d="M156.725 162.363L149.766 171.61C149.525 171.928 149.378 172.307 149.341 172.704C149.304 173.102 149.38 173.501 149.558 173.858C149.765 174.271 150.099 174.606 150.511 174.814C150.923 175.022 151.391 175.091 151.846 175.012L161.942 173.255L271.149 110.471C272.398 109.743 273.489 108.772 274.356 107.616C275.223 106.459 275.849 105.14 276.197 103.737C276.546 102.334 276.608 100.875 276.382 99.4471C276.156 98.0192 275.646 96.6512 274.882 95.4242C274.122 94.2084 273.128 93.1559 271.958 92.3283C270.787 91.5006 269.464 90.9144 268.064 90.6037C266.665 90.2931 265.218 90.2642 263.807 90.5189C262.396 90.7736 261.05 91.3066 259.848 92.087L156.725 162.363Z" fill="#FFC107" stroke="#212121" stroke-linecap="round" stroke-linejoin="round"/>
<path d="M259.847 92.0872L230.739 112.175C231.011 117.217 233.176 123.891 241.995 126.839L271.155 110.452C272.435 109.746 273.558 108.788 274.457 107.635C275.355 106.483 276.01 105.16 276.383 103.747C276.755 102.334 276.836 100.86 276.622 99.414C276.408 97.9684 275.902 96.5814 275.136 95.337C274.37 94.0926 273.359 93.0167 272.164 92.1745C270.97 91.3324 269.617 90.7414 268.188 90.4376C266.758 90.1337 265.282 90.1233 263.848 90.4068C262.415 90.6904 261.054 91.2621 259.847 92.0872Z" fill="#212121" stroke="#212121" stroke-linecap="round" stroke-linejoin="round"/>
<path d="M149.558 173.858C149.765 174.271 150.099 174.606 150.511 174.814C150.923 175.022 151.391 175.091 151.846 175.012L161.942 173.256C153.777 170.08 156.758 162.363 156.758 162.363L149.798 171.61C149.552 171.925 149.399 172.302 149.357 172.7C149.314 173.097 149.384 173.499 149.558 173.858Z" fill="#FFC107" stroke="#212121" stroke-linecap="round" stroke-linejoin="round"/>
<path d="M222.983 115.149C222.983 115.149 221.415 115.149 221.415 115.862C221.415 116.575 221.007 119.102 221.914 119.031C222.821 118.96 222.737 117.366 222.815 116.808C222.892 116.251 222.983 115.149 222.983 115.149Z" fill="white" stroke="#212121" stroke-linecap="round" stroke-linejoin="round"/>
<path d="M224.7 112.564C224.7 112.564 223.294 112.136 222.977 112.998C222.659 113.86 222.329 117.949 223.294 117.845C224.26 117.742 224.48 114.048 224.7 112.564Z" fill="white" stroke="#212121" stroke-linecap="round" stroke-linejoin="round"/>
<path d="M226.852 112.784C226.852 112.784 225.238 111.385 224.701 112.564C224.163 113.743 224.053 117.1 224.701 117.1C225.349 117.1 226.314 115.7 226.528 114.949C226.689 114.236 226.798 113.513 226.852 112.784Z" fill="white" stroke="#212121" stroke-linecap="round" stroke-linejoin="round"/>
<path d="M229.113 113.4C229.113 113.4 227.066 111.676 226.742 112C226.418 112.324 225.128 115.642 226.094 116.309C227.059 116.977 228.29 114.002 228.29 114.002L229.113 113.4Z" fill="white" stroke="#212121" stroke-linecap="round" stroke-linejoin="round"/>
<path d="M203.413 129.38C203.413 129.38 203.64 132.84 204.56 133.643C205.116 134.128 205.619 134.669 206.064 135.257C206.187 136.136 206.263 137.02 206.29 137.907C206.29 138.944 206.984 138.834 207.586 138.834C208.189 138.834 209.2 140.778 209.777 141.711C210.405 142.563 211.248 143.234 212.22 143.655C213.256 144.225 214.98 142.041 214.98 142.041L217.261 145.832L225.445 140.532L221.415 132.697C221.177 129.979 220.35 127.346 218.991 124.98C216.691 120.832 213.574 118.5 208.39 120.022C203.206 121.545 203.413 129.38 203.413 129.38Z" fill="white" stroke="#212121" stroke-linecap="round" stroke-linejoin="round"/>
<path d="M216.431 143.558L212.926 140.033" stroke="#212121" stroke-linecap="round" stroke-linejoin="round"/>
<path d="M210.379 133.423C210.04 133.647 209.642 133.766 209.236 133.766C208.829 133.766 208.431 133.647 208.092 133.423C207.432 132.978 206.899 132.37 206.543 131.659C206.188 130.947 206.023 130.155 206.064 129.36C206.064 127.578 203.776 128.343 203.776 128.343C203.776 128.343 201.229 131.136 199.454 130.118C197.678 129.101 196.655 127.073 201.741 120.716C206.828 114.359 211.656 114.618 215.719 117.158C219.782 119.699 221.389 132.71 221.389 132.71C221.389 132.71 221.311 135.192 218.006 135.95C214.701 136.709 210.379 135.963 210.379 133.423Z" fill="#212121" stroke="#212121" stroke-linecap="round" stroke-linejoin="round"/>
<path d="M209.75 135.607C209.75 135.607 208.597 131.227 210.437 131.803C212.278 132.38 213.321 136.294 213.204 136.754C213.088 137.214 212.167 137.447 211.707 137.331" fill="white"/>
<path d="M209.75 135.607C209.75 135.607 208.597 131.227 210.437 131.803C212.278 132.38 213.321 136.294 213.204 136.754C213.088 137.214 212.167 137.447 211.707 137.331" stroke="#212121" stroke-linecap="round" stroke-linejoin="round"/>
<path d="M223.067 137.195C220.917 138.4 218.864 139.769 216.924 141.29C214.98 143.02 213.237 148.204 213.237 148.204C213.237 148.204 225.109 140.137 227.182 138.983C229.256 137.83 229.716 137.259 229.716 137.259C229.716 137.259 225.374 136.618 223.067 137.195Z" fill="white" stroke="#212121" stroke-linecap="round" stroke-linejoin="round"/>
<path d="M193.823 168.169C193.823 168.169 190.467 166.614 186.592 164.547C182.716 162.48 178.582 160.16 178.582 160.16C177.468 160.023 176.34 160.023 175.226 160.16C173.272 160.647 171.286 160.991 169.283 161.19C167.987 161.19 167.216 162.486 167.987 162.998C168.759 163.51 172.899 162.998 172.899 162.998L166.419 166.102C166.419 166.102 165.648 167.651 167.456 167.651C169.264 167.651 170.048 167.391 172.102 167.651C174.156 167.91 178.304 165.324 178.304 165.324C178.304 165.324 189.242 177.928 191.782 178.083C194.322 178.239 199.513 172.303 193.823 168.169Z" fill="white" stroke="#212121" stroke-linecap="round" stroke-linejoin="round"/>
<path d="M197.27 165.746C197.27 165.746 191.626 167.333 190.57 169.802C189.513 172.271 189.688 175.971 191.801 178.084C193.913 180.196 194.801 180.727 197.089 179.846C199.376 178.965 199.914 177.559 200.089 176.146C200.264 174.733 201.527 169.977 197.27 165.746Z" fill="white" stroke="#212121" stroke-linecap="round" stroke-linejoin="round"/>
<path d="M272.75 264.954C272.296 265.695 271.885 266.461 271.518 267.248C271.343 267.78 267.462 268.304 267.993 270.067C268.525 271.83 272.575 273.242 274.519 273.417C276.463 273.592 280.351 270.948 281.038 270.242C281.452 269.827 282.074 267.093 281.744 264.954C281.527 263.959 281.038 263.044 280.331 262.31C280.331 262.31 276.981 257.198 272.75 264.954Z" fill="white" stroke="#212121" stroke-linecap="round" stroke-linejoin="round"/>
<path d="M281.743 264.954C281.562 264.062 281.148 263.232 280.544 262.55C279.815 262.555 279.093 262.708 278.425 263.001C277.756 263.294 277.154 263.721 276.656 264.255C274.894 266.367 275.775 271.123 273.656 271.83C272.082 272.354 269.328 270.43 268.032 269.419C267.96 269.629 267.96 269.857 268.032 270.067C268.563 271.83 272.613 273.242 274.557 273.417C276.501 273.592 280.389 270.948 281.076 270.242C281.452 269.827 282.074 267.093 281.743 264.954Z" fill="white" stroke="#212121" stroke-linecap="round" stroke-linejoin="round"/>
<path d="M277.162 266.192C276.456 269.361 277.337 271.479 274.519 273.417C276.463 273.592 280.351 270.948 281.037 270.242C281.452 269.827 282.074 267.093 281.744 264.954C281.668 264.514 281.521 264.09 281.31 263.697H281.037C281.037 263.697 277.862 263.017 277.162 266.192Z" fill="#212121" stroke="#212121" stroke-linecap="round" stroke-linejoin="round"/>
<path d="M266.49 241.509C263.846 236.222 253.147 221.979 253.147 221.979C253.147 221.979 248.216 191.14 248.034 189.015C247.698 184.945 245.086 178.802 245.086 178.802C245.086 178.802 236.578 177.027 220.358 186.546L220.533 191.834L231.841 205.779C232.385 205.332 232.703 205.059 232.703 205.059C232.703 205.059 239.928 223.203 241.516 226.741C243.103 230.28 250.938 242.805 254.826 245.397C256.99 246.842 272.749 264.954 272.749 264.954C272.749 264.954 275.749 262.31 277.687 262.31H280.331C280.331 262.31 269.133 246.797 266.49 241.509Z" fill="#212121" stroke="#212121" stroke-linecap="round" stroke-linejoin="round"/>
<g opacity="0.35">
<path opacity="0.35" d="M269.412 257.509C271.563 260.224 272.983 262.252 272.983 262.252" stroke="white" stroke-linecap="round" stroke-linejoin="round"/>
<path opacity="0.35" d="M237.22 206.938C237.22 206.938 240.013 214.203 243.648 222.581C247.283 230.96 251.748 241.023 258.455 246.052C261.286 248.171 264.287 251.391 266.879 254.398" stroke="white" stroke-linecap="round" stroke-linejoin="round"/>
<path opacity="0.35" d="M244.866 199.59L232.703 205.053L245.605 204.424" stroke="white" stroke-linecap="round" stroke-linejoin="round"/>
</g>
<path d="M242.747 128.907C239.753 129.257 231.997 134.544 231.465 135.076C230.934 135.607 228.822 136.838 227.94 137.544C227.94 137.544 209.796 148.826 208.196 149.856C206.595 150.887 203.439 153.025 203.614 153.744C203.789 154.464 194.27 169.944 194.27 169.944C194.27 169.944 191.451 173.645 194.095 176.995C196.739 180.345 199.208 178.051 200.439 177.351C201.67 176.651 211.371 167.476 211.371 167.476L220.32 188.86C220.32 188.86 232.71 180.552 245.929 181.084L237.116 146.532C237.116 146.532 249.279 137.363 249.629 134.22C249.979 131.077 245.747 128.55 242.747 128.907Z" fill="white"/>
<path d="M242.747 128.907C241.548 129.043 239.584 129.976 237.627 131.084C238.074 130.998 238.536 131.046 238.955 131.221C239.375 131.396 239.733 131.691 239.986 132.069C241.444 133.942 238.321 139.968 238.321 139.968C238.321 139.968 237.025 131.635 237.077 134.136C237.128 136.637 236.429 144.323 236.429 144.323C236.429 144.323 232.268 139.333 232.476 140.584C232.683 141.834 235.385 153.472 237.051 157.84C238.716 162.207 235.8 174.474 234.141 178.012C232.482 181.55 233.493 163.043 231.646 167.612C229.8 172.18 223.559 184.887 222.101 186.138C220.643 187.389 222.568 169.18 223.086 166.808C222.438 168.791 218.155 181.349 218.155 181.349L212.323 166.38C212.323 166.38 202.344 158.268 203.381 159.726C204.417 161.184 206.919 165.758 206.919 165.758C206.919 165.758 200.886 164.508 201.929 164.922C202.972 165.337 207.541 167.625 207.541 167.625C207.541 167.625 198.19 174.312 195.488 175.116C194.761 175.33 194.014 175.466 193.259 175.524C193.454 176.067 193.736 176.575 194.095 177.027C196.739 180.377 199.207 178.083 200.439 177.384C201.67 176.684 211.37 167.508 211.37 167.508L220.319 188.86C220.319 188.86 232.709 180.552 245.928 181.084L237.115 146.532C237.115 146.532 249.278 137.363 249.628 134.22C249.978 131.077 245.747 128.55 242.747 128.907Z" fill="#FFC107"/>
<path opacity="0.5" d="M242.747 128.907C241.548 129.043 239.584 129.976 237.627 131.084C238.074 130.998 238.536 131.046 238.955 131.221C239.375 131.396 239.733 131.691 239.986 132.069C241.444 133.942 238.321 139.968 238.321 139.968C238.321 139.968 237.025 131.635 237.077 134.136C237.128 136.637 236.429 144.323 236.429 144.323C236.429 144.323 232.268 139.333 232.476 140.584C232.683 141.834 235.385 153.472 237.051 157.84C238.716 162.207 235.8 174.474 234.141 178.012C232.482 181.55 233.493 163.043 231.646 167.612C229.8 172.18 223.559 184.887 222.101 186.138C220.643 187.389 222.568 169.18 223.086 166.808C222.438 168.791 218.155 181.349 218.155 181.349L212.323 166.38C212.323 166.38 202.344 158.268 203.381 159.726C204.417 161.184 206.919 165.758 206.919 165.758C206.919 165.758 200.886 164.508 201.929 164.922C202.972 165.337 207.541 167.625 207.541 167.625C207.541 167.625 198.19 174.312 195.488 175.116C194.761 175.33 194.014 175.466 193.259 175.524C193.454 176.067 193.736 176.575 194.095 177.027C196.739 180.377 199.207 178.083 200.439 177.384C201.67 176.684 211.37 167.508 211.37 167.508L220.319 188.86C220.319 188.86 232.709 180.552 245.928 181.084L237.115 146.532C237.115 146.532 249.278 137.363 249.628 134.22C249.978 131.077 245.747 128.55 242.747 128.907Z" fill="white"/>
<path d="M242.747 128.907C239.753 129.257 231.997 134.544 231.465 135.076C230.934 135.607 228.822 136.838 227.94 137.544C227.94 137.544 209.796 148.826 208.196 149.856C206.595 150.887 203.439 153.025 203.614 153.744C203.789 154.464 194.27 169.944 194.27 169.944C194.27 169.944 191.451 173.645 194.095 176.995C196.739 180.345 199.208 178.051 200.439 177.351C201.67 176.651 211.371 167.476 211.371 167.476L220.32 188.86C220.32 188.86 232.71 180.552 245.929 181.084L237.116 146.532C237.116 146.532 249.279 137.363 249.629 134.22C249.979 131.077 245.747 128.55 242.747 128.907Z" stroke="#212121" stroke-linecap="round" stroke-linejoin="round"/>
<path d="M220.319 188.86C219.798 184.002 220.048 179.092 221.058 174.312L220.319 188.86Z" fill="white"/>
<path d="M220.319 188.86C219.798 184.002 220.048 179.092 221.058 174.312" stroke="#212121" stroke-linecap="round" stroke-linejoin="round"/>
<path d="M218.642 178.058C218.642 178.058 218.642 175.077 221.992 165.746L218.642 178.058Z" fill="white"/>
<path d="M218.642 178.058C218.642 178.058 218.642 175.077 221.992 165.746" stroke="#212121" stroke-linecap="round" stroke-linejoin="round"/>
<path d="M204.495 159.751L211.371 167.508L204.32 162.395" fill="white"/>
<path d="M204.495 159.751L211.371 167.508L204.32 162.395" stroke="#212121" stroke-linecap="round" stroke-linejoin="round"/>
<path d="M237.109 136.663V146.532L239.397 133.838" fill="white"/>
<path d="M237.109 136.663V146.532L239.397 133.838" stroke="#212121" stroke-linecap="round" stroke-linejoin="round"/>
<path d="M223.145 166.588C223.118 166.659 223.099 166.733 223.087 166.808C223.165 166.569 223.191 166.478 223.145 166.588Z" fill="#212121"/>
<path d="M227.175 124.332C226.689 124.335 226.215 124.182 225.822 123.896C225.43 123.61 225.139 123.205 224.994 122.741C224.849 122.277 224.857 121.779 225.016 121.32C225.175 120.861 225.478 120.465 225.879 120.191L252.013 102.267C252.259 102.097 252.535 101.977 252.827 101.913C253.119 101.85 253.421 101.845 253.715 101.898C254.009 101.952 254.289 102.062 254.54 102.224C254.792 102.386 255.008 102.595 255.179 102.841C255.349 103.086 255.469 103.363 255.532 103.655C255.596 103.947 255.601 104.248 255.548 104.542C255.494 104.836 255.384 105.117 255.222 105.368C255.06 105.619 254.851 105.836 254.605 106.006L228.471 123.936C228.09 124.197 227.638 124.335 227.175 124.332Z" fill="#212121"/>
<path d="M233.96 120.547L254.281 106.563" stroke="white" stroke-linecap="round" stroke-linejoin="round"/>
<path d="M231.666 116.284L251.987 102.306" stroke="white" stroke-linecap="round" stroke-linejoin="round"/>
<path d="M220.533 191.808C220.533 191.808 200.957 214.572 200.529 219.756C200.102 224.94 203.983 230.124 208.733 231.42C213.483 232.716 259.789 233.747 259.789 233.747L259.355 225.109L218.239 218.895L231.847 205.753" fill="#212121"/>
<path d="M220.533 191.808C220.533 191.808 200.957 214.572 200.529 219.756C200.102 224.94 203.983 230.124 208.733 231.42C213.483 232.716 259.789 233.747 259.789 233.747L259.355 225.109L218.239 218.895L231.847 205.753" stroke="#212121" stroke-linecap="round" stroke-linejoin="round"/>
<g opacity="0.35">
<path opacity="0.35" d="M251.132 228.932L254.262 229.289" stroke="white" stroke-linecap="round" stroke-linejoin="round"/>
<path opacity="0.35" d="M207.107 218.098L206.213 219.232C206.213 219.232 211.799 218.953 210.684 220.068C209.944 220.943 209.459 222.006 209.284 223.139L212.635 222.303C212.635 222.303 210.691 226.191 212.077 225.938C213.139 225.677 214.169 225.301 215.149 224.817L247.549 228.518" stroke="white" stroke-linecap="round" stroke-linejoin="round"/>
<path opacity="0.35" d="M225.77 187.92C225.77 187.92 220.456 191.555 222.977 192.112C225.498 192.67 228.563 191.834 227.72 192.948C226.498 194.316 225.2 195.614 223.832 196.836L211.358 212.674" stroke="white" stroke-linecap="round" stroke-linejoin="round"/>
<path opacity="0.35" d="M222.977 192.132C222.977 192.132 226.048 187.661 233.034 187.382" stroke="white" stroke-linecap="round" stroke-linejoin="round"/>
</g>
<path d="M258.461 225.031C258.461 225.031 263.327 223.923 264.215 225.472C265.103 227.02 265.543 230.779 265.543 232.548C265.543 234.317 266.839 237.194 266.645 239.851C266.451 242.507 262.446 245.378 261.118 245.378C259.789 245.378 259.822 237.414 258.461 234.317C257.1 231.219 256.919 226.8 258.461 225.031Z" fill="white" stroke="#212121" stroke-linecap="round" stroke-linejoin="round"/>
<path d="M261.533 245.307C263.127 244.866 266.444 242.268 266.645 239.85C266.872 237.194 265.544 234.317 265.544 232.548C265.544 230.778 265.097 227.02 264.215 225.471C263.82 224.778 262.628 224.616 261.429 224.648C261.108 224.977 260.867 225.376 260.725 225.813C260.583 226.25 260.545 226.714 260.612 227.169C260.923 229.703 263.457 239.993 262.511 242.844C262.233 243.683 261.906 244.505 261.533 245.307Z" fill="white" stroke="#212121" stroke-linecap="round" stroke-linejoin="round"/>
<path d="M264.215 225.504C263.976 225.164 263.613 224.932 263.204 224.856C262.368 225.999 261.964 227.402 262.064 228.815C262.342 233.034 263.191 236.416 263.47 240.071C263.673 241.678 263.423 243.309 262.751 244.782C264.41 243.791 266.49 241.788 266.639 239.89C266.866 237.233 265.537 234.356 265.537 232.587C265.537 230.818 265.096 227.02 264.215 225.504Z" fill="#212121" stroke="#212121" stroke-linecap="round" stroke-linejoin="round"/>
</svg>
